<svg width="1234" height="350" viewBox="0 0 1234 350" fill="none" xmlns="http://www.w3.org/2000/svg">
<path fill-rule="evenodd" clip-rule="evenodd" d="M292.45 194.834L297.685 247.95H292.45L285.072 194.362L246.52 5.27002H189.405V343.795H232.955V154.232L227.481 105.837H232.955L240.094 154.704L278.648 343.795H335.763V5.27002H292.45V194.834Z" fill="black"/>
<path fill-rule="evenodd" clip-rule="evenodd" d="M566.077 218.205L563.228 256.685H558.242L555.392 218.205L524.287 5.27002H477.512L537.347 343.795H584.122L643.958 5.27002H597.181L566.077 218.205Z" fill="black"/>
<path fill-rule="evenodd" clip-rule="evenodd" d="M895.105 5.9278C883.514 1.89627 870.503 0 856.311 0C842.117 0 828.87 2.13396 816.805 6.63955C804.742 11.1438 796.935 14.7026 793.624 17.3106C790.076 19.9187 787.709 22.289 786.054 24.1866V145.599L879.493 221.482V302.106L876.654 304.002C873.105 306.61 864.826 309.22 856.311 309.22C846.61 309.457 838.805 307.087 832.891 302.106V252.546H786.054V325.345L793.151 331.272C797.645 335.304 805.925 339.335 817.515 343.367C829.108 347.635 842.117 349.532 856.311 349.532C870.503 349.532 883.75 347.399 895.815 342.655C907.879 338.15 915.448 334.593 918.997 331.985C922.544 329.376 924.912 327.242 926.566 325.345V196.107L832.891 119.989V47.664L835.967 45.5287C839.043 42.9207 847.795 40.3114 856.311 40.3114C866.009 40.3114 873.579 42.6843 879.493 47.664V97.2243H926.566V24.1866L919.234 18.4965C914.738 14.2272 906.696 9.95933 895.105 5.9278Z" fill="black"/>
<mask id="mask0" mask-type="alpha" maskUnits="userSpaceOnUse" x="1066" y="4" width="168" height="341">
<path d="M1066.96 4.74219H1233.02V344.788H1066.96V4.74219Z" fill="white"/>
</mask>
<g mask="url(#mask0)">
<path fill-rule="evenodd" clip-rule="evenodd" d="M1127.99 244.245L1145.02 130.185L1147.39 89.3978H1152.59L1155.19 130.185L1171.99 244.245H1127.99ZM1174.59 4.74219H1125.62L1066.96 344.788H1113.56L1122.08 284.558H1177.9L1186.66 344.788H1233.02L1174.59 4.74219Z" fill="black"/>
</g>
<path fill-rule="evenodd" clip-rule="evenodd" d="M47.024 53.3549L0 91.1065V322.972L6.86046 328.902C11.8267 332.933 20.1072 336.965 31.9351 340.995C43.526 345.264 56.5369 347.162 70.9665 347.162C85.159 347.162 98.4057 345.026 110.707 340.284C122.772 335.779 130.578 332.221 134.125 329.613C137.437 327.004 139.803 324.87 141.459 322.972V2.37109H94.6212V299.734L93.8616 300.344L92.2566 301.632C88.2349 304.24 79.9544 306.849 70.7294 306.849C60.7944 307.085 52.9881 304.715 47.0748 299.734" fill="#FB4000"/>
<path fill-rule="evenodd" clip-rule="evenodd" d="M737.895 4.7417H691.043V344.789H737.895V304.002V4.7417Z" fill="black"/>
<path fill-rule="evenodd" clip-rule="evenodd" d="M430.588 3.67725H383.736V343.724H430.588V302.938V3.67725Z" fill="black"/>
<path fill-rule="evenodd" clip-rule="evenodd" d="M973.76 4.7417V93.4197V290.711V304.002V344.789H1020.61V304.002V4.7417H973.76Z" fill="black"/>
</svg>
